<?xml version="1.0" encoding="UTF-8" standalone="no"?>
<!-- Created with Inkscape (http://www.inkscape.org/) -->

<svg
   xmlns:dc="http://purl.org/dc/elements/1.1/"
   xmlns:cc="http://creativecommons.org/ns#"
   xmlns:rdf="http://www.w3.org/1999/02/22-rdf-syntax-ns#"
   xmlns:svg="http://www.w3.org/2000/svg"
   xmlns="http://www.w3.org/2000/svg"
   xmlns:sodipodi="http://sodipodi.sourceforge.net/DTD/sodipodi-0.dtd"
   xmlns:inkscape="http://www.inkscape.org/namespaces/inkscape"
   width="100"
   height="100"
   viewBox="0 0 99.999997 100"
   id="svg2"
   version="1.1"
   inkscape:version="0.91 r13725"
   sodipodi:docname="icon.svg">
  <defs
     id="defs4" />
  <sodipodi:namedview
     id="base"
     pagecolor="#ffffff"
     bordercolor="#666666"
     borderopacity="1.0"
     inkscape:pageopacity="0.0"
     inkscape:pageshadow="2"
     inkscape:zoom="1.4142136"
     inkscape:cx="206.35975"
     inkscape:cy="23.934474"
     inkscape:document-units="px"
     inkscape:current-layer="layer1"
     showgrid="true"
     inkscape:snap-bbox="true"
     inkscape:bbox-paths="true"
     inkscape:bbox-nodes="true"
     units="px"
     inkscape:object-nodes="true"
     inkscape:window-width="1475"
     inkscape:window-height="770"
     inkscape:window-x="221"
     inkscape:window-y="124"
     inkscape:window-maximized="0">
    <inkscape:grid
       type="xygrid"
       id="grid4136" />
  </sodipodi:namedview>
  <metadata
     id="metadata7">
    <rdf:RDF>
      <cc:Work
         rdf:about="">
        <dc:format>image/svg+xml</dc:format>
        <dc:type
           rdf:resource="http://purl.org/dc/dcmitype/StillImage" />
        <dc:title></dc:title>
      </cc:Work>
    </rdf:RDF>
  </metadata>
  <g
     inkscape:label="レイヤー 1"
     inkscape:groupmode="layer"
     id="layer1"
     transform="translate(0,-952.36214)">
    <rect
       style="fill:#ececec;fill-opacity:1;stroke:none;stroke-width:1;stroke-linecap:round;stroke-linejoin:round;stroke-miterlimit:4;stroke-dasharray:none;stroke-opacity:1"
       id="rect4138"
       width="100"
       height="100"
       x="0"
       y="1052.3622" />
    <rect
       style="fill:#ececec;fill-opacity:1;stroke:none;stroke-width:1;stroke-linecap:round;stroke-linejoin:round;stroke-miterlimit:4;stroke-dasharray:none;stroke-opacity:1"
       id="rect4138-4"
       width="100"
       height="100"
       x="100"
       y="1052.3622" />
    <rect
       style="fill:#ececec;fill-opacity:1;stroke:none;stroke-width:1;stroke-linecap:round;stroke-linejoin:round;stroke-miterlimit:4;stroke-dasharray:none;stroke-opacity:1"
       id="rect4138-7"
       width="100"
       height="100"
       x="200"
       y="1052.3622" />
    <path
       sodipodi:type="star"
       style="fill:#ffff00;fill-opacity:1;stroke:none;stroke-width:1;stroke-linecap:round;stroke-linejoin:round;stroke-miterlimit:4;stroke-dasharray:none;stroke-opacity:1"
       id="path4161"
       sodipodi:sides="5"
       sodipodi:cx="49.999999"
       sodipodi:cy="1102.362"
       sodipodi:r1="40"
       sodipodi:r2="25.6"
       sodipodi:arg1="-1.5707963"
       sodipodi:arg2="-0.94247777"
       inkscape:flatsided="false"
       inkscape:rounded="0.23"
       inkscape:randomized="0"
       d="m 50.000001,1062.3621 c 5.626748,0 10.495168,15.9818 15.047302,19.2891 4.552135,3.3073 21.256197,2.9988 22.994958,8.3502 1.738761,5.3513 -11.956453,14.9201 -13.695214,20.2715 -1.738761,5.3514 3.716497,21.1425 -0.835638,24.4498 -4.552134,3.3074 -17.884662,-6.7606 -23.51141,-6.7606 -5.626747,0 -18.959276,10.068 -23.51141,6.7606 -4.552134,-3.3073 0.903124,-19.0984 -0.835636,-24.4498 -1.738761,-5.3514 -15.433974,-14.9202 -13.695213,-20.2715 1.73876,-5.3514 18.442823,-5.0429 22.994958,-8.3502 4.552134,-3.3073 9.420555,-19.2891 15.047303,-19.2891 z" />
    <path
       style="color:#000000;font-style:normal;font-variant:normal;font-weight:normal;font-stretch:normal;font-size:medium;line-height:normal;font-family:sans-serif;text-indent:0;text-align:start;text-decoration:none;text-decoration-line:none;text-decoration-style:solid;text-decoration-color:#000000;letter-spacing:normal;word-spacing:normal;text-transform:none;direction:ltr;block-progression:tb;writing-mode:lr-tb;baseline-shift:baseline;text-anchor:start;white-space:normal;clip-rule:nonzero;display:inline;overflow:visible;visibility:visible;opacity:1;isolation:auto;mix-blend-mode:normal;color-interpolation:sRGB;color-interpolation-filters:linearRGB;solid-color:#000000;solid-opacity:1;fill:#008000;fill-opacity:1;fill-rule:nonzero;stroke:none;stroke-width:10;stroke-linecap:round;stroke-linejoin:round;stroke-miterlimit:4;stroke-dasharray:none;stroke-dashoffset:0;stroke-opacity:1;color-rendering:auto;image-rendering:auto;shape-rendering:auto;text-rendering:auto;enable-background:accumulate"
       d="m 130,1067.3622 c -8.22352,0 -15,6.7765 -15,15 l 0,11.3457 a 10.001,10.001 0 0 1 4.85352,-1.3438 10.001,10.001 0 0 1 5.14648,1.3535 l 0,-11.3554 c 0,-2.8565 2.14352,-5 5,-5 l 40,0 c 2.85648,0 5,2.1435 5,5 l 0,5 -5,0 a 5.0005,5.0005 0 0 0 -3.53516,8.5371 l 10,10 a 5.0005,5.0005 0 0 0 7.07032,0 l 10,-10 A 5.0005,5.0005 0 0 0 190,1087.3622 l -5,0 0,-5 c 0,-8.2235 -6.77648,-15 -15,-15 l -40,0 z m -10.07422,30.0019 a 5.0005,5.0005 0 0 0 -3.46094,1.4629 l -10,10 A 5.0005,5.0005 0 0 0 110,1117.3622 l 5,0 0,5 c 0,8.2235 6.77648,15 15,15 l 40,0 c 8.22352,0 15,-6.7765 15,-15 l 0,-11.3457 a 10.001,10.001 0 0 1 -10,-0.01 l 0,11.3536 c 0,2.8565 -2.14352,5 -5,5 l -40,0 c -2.85648,0 -5,-2.1435 -5,-5 l 0,-5 5,0 a 5.0005,5.0005 0 0 0 3.53516,-8.5352 l -10,-10 a 5.0005,5.0005 0 0 0 -3.60938,-1.4629 z"
       id="rect4163"
       inkscape:connector-curvature="0" />
    <rect
       y="1152.3622"
       x="100"
       height="100"
       width="100"
       id="rect4173"
       style="fill:#ececec;fill-opacity:1;stroke:none;stroke-width:1;stroke-linecap:round;stroke-linejoin:round;stroke-miterlimit:4;stroke-dasharray:none;stroke-opacity:1" />
    <rect
       rx="10"
       ry="10.000018"
       y="1172.3622"
       x="120"
       height="60.000019"
       width="60"
       id="rect4175"
       style="fill:none;fill-opacity:1;stroke:#008000;stroke-width:10;stroke-linecap:round;stroke-linejoin:round;stroke-miterlimit:4;stroke-dasharray:none;stroke-opacity:1" />
    <path
       style="fill:#000000;fill-rule:evenodd;stroke:#ececec;stroke-width:20;stroke-linecap:round;stroke-linejoin:round;stroke-miterlimit:3;stroke-dasharray:none;stroke-dashoffset:0;stroke-opacity:1"
       d="m 180,1202.3622 10,-10 -20,0 z"
       id="path4177"
       inkscape:connector-curvature="0" />
    <path
       inkscape:connector-curvature="0"
       id="path4179"
       d="m 180,1202.3622 -10,-10 20,0 z"
       style="fill:#000000;fill-rule:evenodd;stroke:#008000;stroke-width:10;stroke-linecap:round;stroke-linejoin:round;stroke-miterlimit:3;stroke-dasharray:none;stroke-dashoffset:0;stroke-opacity:1" />
    <path
       inkscape:connector-curvature="0"
       id="path4181"
       d="m 120,1202.3622 -10,9.9999 20,0 z"
       style="fill:#000000;fill-rule:evenodd;stroke:#ececec;stroke-width:20;stroke-linecap:round;stroke-linejoin:round;stroke-miterlimit:3;stroke-dasharray:none;stroke-dashoffset:0;stroke-opacity:1"
       sodipodi:nodetypes="cccc" />
    <path
       sodipodi:nodetypes="cccc"
       style="fill:#000000;fill-rule:evenodd;stroke:#008000;stroke-width:10;stroke-linecap:round;stroke-linejoin:round;stroke-miterlimit:3;stroke-dasharray:none;stroke-dashoffset:0;stroke-opacity:1"
       d="m 120,1202.3622 -10,9.9999 20,0 z"
       id="path4183"
       inkscape:connector-curvature="0" />
    <path
       style="fill:#ffbd5a;fill-rule:evenodd;stroke:none;stroke-width:1px;stroke-linecap:butt;stroke-linejoin:miter;stroke-opacity:1;fill-opacity:1"
       d="m 0,952.36214 100,99.99996 0,-99.99996 z"
       id="path4263"
       inkscape:connector-curvature="0"
       sodipodi:nodetypes="cccc"
       inkscape:export-filename="src/img/toolicon.png"
       inkscape:export-xdpi="45.000019"
       inkscape:export-ydpi="45.000019" />
    <path
       style="fill:#fff767;fill-opacity:1;stroke:none;stroke-width:1;stroke-linecap:round;stroke-linejoin:round;stroke-miterlimit:4;stroke-dasharray:none;stroke-opacity:1"
       d="M 50 10 C 44.373252 10 39.505259 25.981742 34.953125 29.289062 C 34.034577 29.956427 32.607204 30.472752 30.921875 30.921875 L 75.341797 75.341797 C 75.129668 69.328411 73.212948 61.402457 74.347656 57.910156 C 76.086417 52.558856 89.78173 42.990032 88.042969 37.638672 C 86.304208 32.287322 69.59901 32.596383 65.046875 29.289062 C 60.494741 25.981752 55.626748 10 50 10 z "
       transform="translate(0,952.36214)"
       id="path4212"
       inkscape:export-filename="src/img/toolicon.png"
       inkscape:export-xdpi="45.000019"
       inkscape:export-ydpi="45.000019" />
    <path
       style="fill:#159b06;fill-rule:evenodd;stroke:none;stroke-width:1px;stroke-linecap:butt;stroke-linejoin:miter;stroke-opacity:1;fill-opacity:1"
       d="m 100,952.36214 100,99.99996 0,-99.99996 z"
       id="path4263-8"
       inkscape:connector-curvature="0"
       sodipodi:nodetypes="cccc"
       inkscape:export-filename="src/img/toolicon.png"
       inkscape:export-xdpi="45.000019"
       inkscape:export-ydpi="45.000019" />
    <path
       style="color:#000000;font-style:normal;font-variant:normal;font-weight:normal;font-stretch:normal;font-size:medium;line-height:normal;font-family:sans-serif;text-indent:0;text-align:start;text-decoration:none;text-decoration-line:none;text-decoration-style:solid;text-decoration-color:#000000;letter-spacing:normal;word-spacing:normal;text-transform:none;direction:ltr;block-progression:tb;writing-mode:lr-tb;baseline-shift:baseline;text-anchor:start;white-space:normal;clip-rule:nonzero;display:inline;overflow:visible;visibility:visible;opacity:1;isolation:auto;mix-blend-mode:normal;color-interpolation:sRGB;color-interpolation-filters:linearRGB;solid-color:#000000;solid-opacity:1;fill:#a7f264;fill-opacity:1;fill-rule:nonzero;stroke:none;stroke-width:10;stroke-linecap:round;stroke-linejoin:round;stroke-miterlimit:4;stroke-dasharray:none;stroke-dashoffset:0;stroke-opacity:1;color-rendering:auto;image-rendering:auto;shape-rendering:auto;text-rendering:auto;enable-background:accumulate"
       d="M 130 15 C 125.88824 15 122.13808 16.693953 119.41602 19.416016 L 126.42969 26.429688 C 127.32263 25.53675 128.57176 25 130 25 L 170 25 C 172.85648 25 175 27.1435 175 30 L 175 35 L 170 35 A 5.0005 5.0005 0 0 0 166.46484 43.537109 L 176.46484 53.537109 A 5.0005 5.0005 0 0 0 183.53516 53.537109 L 193.53516 43.537109 A 5.0005 5.0005 0 0 0 190 35 L 185 35 L 185 30 C 185 21.7765 178.22352 15 170 15 L 130 15 z M 175 58.644531 L 175 69.998047 C 175 71.426297 174.46325 72.675422 173.57031 73.568359 L 180.58398 80.583984 C 183.30604 77.861922 185 74.11175 185 70 L 185 58.654297 A 10.001 10.001 0 0 1 175 58.644531 z "
       transform="translate(0,952.36214)"
       id="path4214"
       inkscape:export-filename="src/img/toolicon.png"
       inkscape:export-xdpi="45.000019"
       inkscape:export-ydpi="45.000019" />
    <path
       style="fill:#ffbd5a;fill-rule:evenodd;stroke:none;stroke-width:1px;stroke-linecap:butt;stroke-linejoin:miter;stroke-opacity:1;fill-opacity:1"
       d="m 200,952.36214 50,49.99996 50,-49.99996 z"
       id="path4263-5"
       inkscape:connector-curvature="0"
       sodipodi:nodetypes="cccc"
       inkscape:export-filename="src/img/toolicon.png"
       inkscape:export-xdpi="45.000019"
       inkscape:export-ydpi="45.000019" />
    <path
       style="fill:#fff767;fill-opacity:1;stroke:none;stroke-width:1;stroke-linecap:round;stroke-linejoin:round;stroke-miterlimit:4;stroke-dasharray:none;stroke-opacity:1"
       d="M 250 10 C 244.37325 10 239.50527 25.981742 234.95312 29.289062 C 234.03458 29.956433 232.6072 30.472755 230.92188 30.921875 L 250 50 L 269.07812 30.921875 C 267.39272 30.472787 265.96542 29.956427 265.04688 29.289062 C 260.49474 25.981752 255.62675 10 250 10 z "
       transform="translate(0,952.36214)"
       id="path4240"
       inkscape:export-filename="src/img/toolicon.png"
       inkscape:export-xdpi="45.000019"
       inkscape:export-ydpi="45.000019" />
    <path
       style="fill:#159b06;fill-rule:evenodd;stroke:none;stroke-width:1px;stroke-linecap:butt;stroke-linejoin:miter;stroke-opacity:1;fill-opacity:1"
       d="m 300,952.36214 -50,49.99996 50,50 z"
       id="path4286"
       inkscape:connector-curvature="0"
       inkscape:export-filename="src/img/toolicon.png"
       inkscape:export-xdpi="45.000019"
       inkscape:export-ydpi="45.000019" />
    <path
       style="color:#000000;font-style:normal;font-variant:normal;font-weight:normal;font-stretch:normal;font-size:medium;line-height:normal;font-family:sans-serif;text-indent:0;text-align:start;text-decoration:none;text-decoration-line:none;text-decoration-style:solid;text-decoration-color:#000000;letter-spacing:normal;word-spacing:normal;text-transform:none;direction:ltr;block-progression:tb;writing-mode:lr-tb;baseline-shift:baseline;text-anchor:start;white-space:normal;clip-rule:nonzero;display:inline;overflow:visible;visibility:visible;opacity:1;isolation:auto;mix-blend-mode:normal;color-interpolation:sRGB;color-interpolation-filters:linearRGB;solid-color:#000000;solid-opacity:1;fill:#a7f264;fill-opacity:1;fill-rule:nonzero;stroke:none;stroke-width:10;stroke-linecap:round;stroke-linejoin:round;stroke-miterlimit:4;stroke-dasharray:none;stroke-dashoffset:0;stroke-opacity:1;color-rendering:auto;image-rendering:auto;shape-rendering:auto;text-rendering:auto;enable-background:accumulate"
       d="M 280.58398 19.416016 L 273.57031 26.429688 C 274.46325 27.322625 275 28.57175 275 30 L 275 35 L 270 35 A 5.0005 5.0005 0 0 0 266.46484 43.537109 L 276.46484 53.537109 A 5.0005 5.0005 0 0 0 283.53516 53.537109 L 293.53516 43.537109 A 5.0005 5.0005 0 0 0 290 35 L 285 35 L 285 30 C 285 25.88825 283.30604 22.138078 280.58398 19.416016 z M 275 58.644531 L 275 69.998047 C 275 71.426247 274.46325 72.675359 273.57031 73.568359 L 280.58398 80.583984 C 283.30604 77.861884 285 74.1118 285 70 L 285 58.654297 A 10.001 10.001 0 0 1 275 58.644531 z "
       transform="translate(0,952.36214)"
       id="path4242"
       inkscape:export-filename="src/img/toolicon.png"
       inkscape:export-xdpi="45.000019"
       inkscape:export-ydpi="45.000019" />
  </g>
</svg>
